# xmcd
#
# Track frame offsets:
#	150
#	15259
#	32055
#	47985
#	64390
#	87812
#	101235
#	117987
#	135042
#	153565
#	168612
#
# Disc length: 2636 seconds
#
# Revision: 0
# Processed by: cddbd v1.5.2PL0 Copyright (c) Steve Scherf et al.
# Submitted via: EasyCDDAExtractor 10.1.0.1
#
DISCID=8b0a4a0b
DTITLE=Hasse Walli - Kevyet kengät
DYEAR=2000
DGENRE=Blues
TTITLE0=Laila
TTITLE1=Susi ja lammas
TTITLE2=Kevyet kengät
TTITLE3=Kuuman päivän blues
TTITLE4=Paha nainen
TTITLE5=Tumma kihara
TTITLE6=Suuret setelit
TTITLE7=Kuunnousu
TTITLE8=Aika seisahtuu
TTITLE9=Emigranttilaulu
TTITLE10=Joli na jo
EXTD=
EXTT0=
EXTT1=
EXTT2=
EXTT3=
EXTT4=
EXTT5=
EXTT6=
EXTT7=
EXTT8=
EXTT9=
EXTT10=
PLAYORDER=
